<?xml version="1.0" encoding="UTF-8"?><svg id="Layer_2" xmlns="http://www.w3.org/2000/svg" viewBox="0 0 160.26 161.42"><defs><style>.cls-1{fill:#b6d8a9;}.cls-2{stroke-width:.72px;}.cls-2,.cls-3,.cls-4{fill:none;stroke:#1d1d1b;stroke-miterlimit:10;}.cls-5{fill:#edc4de;}.cls-3{stroke-width:.44px;}.cls-4{stroke-width:.85px;}.cls-6{fill:#ffe888;}</style></defs><g id="Layer_7"><g><path class="cls-1" d="M84.13,21.56c-14.45,3.4-17.2,6.15-20.6,20.6-3.4-14.45-6.15-17.2-20.6-20.6,14.45-3.4,17.2-6.15,20.6-20.6,3.4,14.45,6.15,17.2,20.6,20.6Z"/><path class="cls-3" d="M84.13,21.56c-14.45,3.4-17.2,6.15-20.6,20.6-3.4-14.45-6.15-17.2-20.6-20.6,14.45-3.4,17.2-6.15,20.6-20.6,3.4,14.45,6.15,17.2,20.6,20.6Z"/></g><g><path class="cls-5" d="M158.4,79.9c-27.81,6.54-33.11,11.85-39.66,39.66-6.54-27.81-11.85-33.11-39.66-39.66,27.81-6.54,33.11-11.85,39.66-39.66,6.54,27.81,11.85,33.11,39.66,39.66Z"/><path class="cls-4" d="M158.4,79.9c-27.81,6.54-33.11,11.85-39.66,39.66-6.54-27.81-11.85-33.11-39.66-39.66,27.81-6.54,33.11-11.85,39.66-39.66,6.54,27.81,11.85,33.11,39.66,39.66Z"/></g><g><path class="cls-6" d="M68.95,126.15c-23.63,5.56-28.13,10.06-33.69,33.69-5.56-23.63-10.06-28.13-33.69-33.69,23.63-5.56,28.13-10.06,33.69-33.69,5.56,23.63,10.06,28.13,33.69,33.69Z"/><path class="cls-2" d="M68.95,126.15c-23.63,5.56-28.13,10.06-33.69,33.69-5.56-23.63-10.06-28.13-33.69-33.69,23.63-5.56,28.13-10.06,33.69-33.69,5.56,23.63,10.06,28.13,33.69,33.69Z"/></g></g></svg>