<svg xmlns="http://www.w3.org/2000/svg" viewBox="0 0 45.79 45.79"><defs><style>.cls-1{fill:#f8cde2;}.cls-2{fill:#754e9a;}.cls-3{fill:#f198bf;stroke:#754e9a;stroke-width:2.27px;}.cls-3,.cls-4{stroke-linejoin:round;}.cls-4{fill:none;stroke:#6f4b92;stroke-width:0.85px;}</style></defs><title>자산 23</title><g id="레이어_2" data-name="레이어 2"><g id="Layer_1" data-name="Layer 1"><rect class="cls-1" width="45.79" height="45.79"/></g><g id="음식"><ellipse class="cls-2" cx="17.75" cy="17.55" rx="5.14" ry="6.83"/><rect class="cls-3" x="17.26" y="17.82" width="0.97" height="18.21"/><rect class="cls-3" x="28.57" y="20.91" width="0.97" height="15.11"/><rect class="cls-4" x="25.83" y="11.18" width="0.74" height="10.23"/><rect class="cls-4" x="28.69" y="11.18" width="0.74" height="10.23"/><rect class="cls-4" x="31.54" y="11.18" width="0.74" height="10.23"/><path class="cls-2" d="M31.11,17.74a.38.38,0,0,1-.39.38h-.48a.38.38,0,0,1-.39-.39v-.55a3.56,3.56,0,0,0-1.59,0v.55a.39.39,0,0,1-.39.39h-.48a.38.38,0,0,1-.39-.38,3.86,3.86,0,0,0-1.62,3.17,3.68,3.68,0,1,0,7.36,0A3.85,3.85,0,0,0,31.11,17.74Z"/></g></g></svg>