<svg xmlns="http://www.w3.org/2000/svg" viewBox="0 0 408 15"><defs><style>.cls-1{fill:#6464de;}.cls-2{fill:#9787ec;}.cls-3{fill:#fff;}.cls-4,.cls-5{fill:none;stroke-miterlimit:10;}.cls-4{stroke:#cdacf9;}.cls-5{stroke:#fff;}</style></defs><title>자산 4</title><g id="레이어_2" data-name="레이어 2"><g id="레이어_1-2" data-name="레이어 1"><rect class="cls-1" width="14.37" height="15"/><rect class="cls-2" x="17.24" width="14.37" height="15"/><rect class="cls-3" x="38.31" width="369.69" height="15"/><path d="M41.51,4.6h-.72V3.85H43v3h.72V7.6H43v3H40.79V9.85h.72Zm2.16,2.25V6.1H45.1v.75h.72V10.6H44.39V6.85Z"/><path d="M50.85,9.85v.75H48.69V9.85H48v-3H46.54V6.1H48V4.6h.71V3.85h.72V6.1h1.44v.75H49.41v3h.72V9.1h1.44v.75Z"/><path d="M56.6,9.85v.75H54.44V9.85h-.72v-3H52.29V6.1h1.43V4.6h.72V3.85h.72V6.1H56.6v.75H55.16v3h.72V9.1h1.43v.75Z"/><path d="M58,12.1v-.75h.72V6.85H58V6.1h1.44v.75h.72V6.1h2.15v.75h.72V9.1h-.72v.75H60.19v1.5h.72v.75Zm3.59-3V6.85H60.19V9.1Z"/><path d="M67.37,4.6V6.1H65.93V4.6Zm0,3.75v1.5H65.93V8.35Z"/><path d="M70.24,9.85h-.71V8.35h.71V7.6H71V6.85h.72V6.1h.72V5.35h.72V4.6h.72V3.85h.71v1.5h-.71V6.1h-.72v.75H72.4V7.6h-.72v.75H71V9.1h-.72Z"/><path d="M76,9.85h-.72V8.35H76V7.6h.72V6.85h.72V6.1h.72V5.35h.71V4.6h.72V3.85h.72v1.5h-.72V6.1h-.72v.75h-.71V7.6h-.72v.75h-.72V9.1H76Z"/><path d="M84.61,10.6V9.85h-.72v-3h-.72V7.6h-.71V9.85h1.43v.75H81.74V9.85H81V7.6h.72V6.85h.72V6.1h1.43V4.6h-.72V3.85h2.16v6h.72v.75Z"/><path d="M91.08,9.85v.75H88.92V9.85H88.2v-3H86.77V6.1H88.2V4.6h.72V3.85h.72V6.1h1.44v.75H89.64v3h.72V9.1h1.43v.75Z"/><path d="M95.39,10.6v1.5H94V10.6Z"/><path d="M98.26,12.1v-.75H99V6.85h-.72V6.1h1.43v.75h.72V6.1h2.16v.75h.72V9.1h-.72v.75h-2.16v1.5h.72v.75Zm3.59-3V6.85h-1.44V9.1Z"/><path d="M107.6,10.6V9.85h-.72v.75h-2.16V9.85H104V6.1h1.44V9.85h1.44V6.1h1.43V9.85H109v.75Z"/><path d="M114.06,9.85v.75h-3.59V9.85h-.72V9.1h1.44v.75h2.15V9.1h-1.43V8.35h-1.44V7.6h-.72V6.85h.72V6.1h3.59v.75h.72V7.6h-1.44V6.85h-2.15V7.6h1.43v.75h1.44V9.1h.72v.75Z"/><path d="M119.09,10.6V9.85h-.72V8.35h-1.44v1.5h1.44v.75h-2.15V9.85h-.72V8.35h.72V7.6h2.15V6.85h-2.15V6.1h2.87v.75h.72v3h.72v.75Z"/><path d="M121.24,6.85V6.1h1.44v.75h.72V10.6H122V6.85Zm2.16,0V6.1h2.15v.75h.72V10.6h-1.43V6.85Z"/><path d="M129.86,10.6v1.5h-1.43V10.6Z"/><path d="M136.33,10.6V9.85h-.72V8.35h-1.44v1.5h1.44v.75h-2.15V9.85h-.72V8.35h.72V7.6h2.15V6.85h-2.15V6.1h2.87v.75h.72v3h.72v.75Z"/><path d="M142.79,9.85v.75H139.2V9.85h-.72v-3h.72V6.1h3.59v.75h.72V7.6h-1.43V6.85h-2.16v3h2.16V9.1h1.43v.75Z"/><path d="M147.1,10.6v1.5h-1.43V10.6Z"/><path d="M154.29,6.85V7.6h-.72v.75h.72V9.1H155v1.5h-1.43V9.1h-.72V8.35h-.72V10.6H150V9.85h.71V4.6H150V3.85h2.15V7.6h.72V6.85h.72V6.1H155v.75Z"/><path d="M155.72,10.6V9.85h.72v-3h-.72V6.1h1.44v.75h.72V6.1H160v.75h.72v1.5h-1.44V6.85h-.71V7.6h-.72V9.85h.72v.75Z"/><path d="M162.19,9.85h-.72V8.35h.72V7.6h.72V6.85h.71V6.1h.72V5.35h.72V4.6h.72V3.85h.72v1.5h-.72V6.1h-.72v.75h-.72V7.6h-.72v.75h-.71V9.1h-.72Z"/><path d="M167.22,12.1v-.75h.71V6.85h-.71V6.1h1.43v.75h.72V6.1h2.16v.75h.71V9.1h-.71v.75h-2.16v1.5h.72v.75Zm3.59-3V6.85h-1.44V9.1Z"/><path d="M177.27,9.85v.75h-3.59V9.85H173v-3h.72V6.1h3.59v.75H178v1.5H174.4v1.5h2.15V9.1H178v.75Zm-.72-2.25V6.85H174.4V7.6Z"/><path d="M178.71,10.6V9.85h.72v-3h-.72V6.1h1.44v.75h.71V6.1H183v.75h.72v1.5H182.3V6.85h-.72V7.6h-.72V9.85h.72v.75Z"/><path d="M188.77,9.85v.75h-3.6V9.85h-.71V9.1h1.43v.75h2.16V9.1h-1.44V8.35h-1.44V7.6h-.71V6.85h.71V6.1h3.6v.75h.71V7.6h-1.43V6.85h-2.16V7.6h1.44v.75h1.44V9.1h.71v.75Z"/><path d="M190.2,9.85v-3h.72V6.1h3.59v.75h.72v3h-.72v.75h-3.59V9.85Zm3.59,0v-3h-2.15v3Z"/><path d="M196,6.85V6.1h1.44v.75h.71V10.6h-1.43V6.85Zm2.15,0V6.1h2.16v.75H201V10.6h-1.44V6.85Z"/><path d="M205.29,10.6V9.85h-.72V8.35h-1.44v1.5h1.44v.75h-2.16V9.85h-.72V8.35h.72V7.6h2.16V6.85h-2.16V6.1h2.88v.75H206v3h.72v.75Z"/><line class="cls-4" x1="4.19" y1="7.5" x2="10.77" y2="7.5"/><polyline class="cls-4" points="7.18 4.5 3.59 7.5 7.18 10.5"/><line class="cls-5" x1="27.42" y1="7.5" x2="20.83" y2="7.5"/><polyline class="cls-5" points="24.42 4.5 28.01 7.5 24.42 10.5"/></g></g></svg>