<svg xmlns="http://www.w3.org/2000/svg" viewBox="0 0 370 265"><defs><style>.cls-1{fill:#cdacf9;}.cls-2{fill:#fff;}.cls-3{fill:#6464de;}.cls-4{fill:#9787ec;}.cls-5,.cls-6,.cls-7{fill:none;stroke-miterlimit:10;}.cls-5{stroke:#cdacf9;}.cls-6{stroke:#fff;}.cls-7{stroke:#6464de;}.cls-8{fill:#f4eefe;}.cls-9{font-size:12px;font-family:DOSGothic;}</style></defs><title>자산 13</title><g id="레이어_2" data-name="레이어 2"><g id="레이어_1-2" data-name="레이어 1"><rect class="cls-1" width="370" height="265"/><rect class="cls-2" x="100" y="45" width="265" height="198.75"/><rect class="cls-2" x="5" y="45" width="95" height="214"/><rect class="cls-3" x="5" y="25" width="15" height="15"/><rect class="cls-4" x="23" y="25" width="15" height="15"/><rect class="cls-2" x="45" y="25" width="260" height="15"/><line class="cls-5" x1="9.38" y1="32.5" x2="16.25" y2="32.5"/><polyline class="cls-5" points="12.5 29.5 8.75 32.5 12.5 35.5"/><line class="cls-6" x1="33.63" y1="32.5" x2="26.75" y2="32.5"/><polyline class="cls-6" points="30.5 29.5 34.25 32.5 30.5 35.5"/><rect class="cls-3" width="370" height="20"/><rect class="cls-1" x="314" y="2.5" width="15" height="15"/><rect class="cls-1" x="332" y="2.5" width="15" height="15"/><rect class="cls-1" x="350" y="2.5" width="15" height="15"/><line class="cls-7" x1="353.5" y1="13.91" x2="361.5" y2="5.91"/><line class="cls-7" x1="353.5" y1="5.91" x2="361.5" y2="13.91"/><line class="cls-7" x1="317.5" y1="14" x2="325.5" y2="14"/><rect class="cls-7" x="335.5" y="6.91" width="8" height="7"/><polygon class="cls-7" points="343.5 6 335.5 6 335.5 8 335.5 14 343.5 14 343.5 6"/><rect class="cls-8" x="225" y="119" width="15" height="265" transform="translate(484 19) rotate(90)"/><rect class="cls-8" x="85" y="45" width="15" height="214"/><rect class="cls-3" x="85" y="45" width="15" height="15"/><polyline class="cls-5" points="87.99 54.98 92.49 50.49 96.98 54.98"/><rect class="cls-3" x="85" y="244" width="15" height="15" transform="translate(185 503) rotate(180)"/><polyline class="cls-5" points="97.01 249.02 92.51 253.51 88.02 249.02"/><rect class="cls-3" x="100" y="244" width="15" height="15" transform="translate(-144 359) rotate(-90)"/><polyline class="cls-5" points="109.98 256.01 105.49 251.51 109.98 247.02"/><rect class="cls-3" x="350" y="244" width="15" height="15" transform="translate(609 -106) rotate(90)"/><polyline class="cls-5" points="355.02 246.99 359.51 251.49 355.02 255.98"/><rect class="cls-3" x="85" y="61" width="15" height="143"/><line class="cls-5" x1="87.5" y1="130.5" x2="97.5" y2="130.5"/><line class="cls-5" x1="87.5" y1="132.5" x2="97.5" y2="132.5"/><line class="cls-5" x1="87.5" y1="134.5" x2="97.5" y2="134.5"/><rect class="cls-3" x="145" y="222" width="15" height="59" transform="translate(404 99) rotate(90)"/><line class="cls-5" x1="154.5" y1="246.5" x2="154.5" y2="256.5"/><line class="cls-5" x1="152.5" y1="246.5" x2="152.5" y2="256.5"/><line class="cls-5" x1="150.5" y1="246.5" x2="150.5" y2="256.5"/><text class="cls-9" transform="translate(50.1 37.18)">C:\takhyangjeong\jonye_yeoshin</text></g></g></svg>