<svg xmlns="http://www.w3.org/2000/svg" viewBox="0 0 239 172"><defs><style>.cls-1{fill:#f7cee8;}.cls-2{fill:#ef9fc3;}.cls-3{fill:none;stroke:#435ae1;stroke-miterlimit:10;}.cls-4{fill:#435ae1;}.cls-5{fill:#fff;}.cls-6{fill:#aebeff;}</style></defs><title>자산 9</title><g id="레이어_2" data-name="레이어 2"><g id="레이어_1-2" data-name="레이어 1"><rect class="cls-1" width="239" height="172"/><rect class="cls-2" width="239" height="19.84"/><rect class="cls-1" x="221" y="2.5" width="15" height="15"/><line class="cls-3" x1="224.5" y1="13.91" x2="232.5" y2="5.91"/><line class="cls-3" x1="224.5" y1="5.91" x2="232.5" y2="13.91"/><path class="cls-4" d="M89.81,34.51H88.25V33H99.19v4.69H97.62V36.08H96.06V34.51H92.94V39.2H94.5V37.64h1.56v4.69H94.5V40.76H92.94v4.69h3.12V43.89h1.56V42.33h1.57V47H88.25V45.45h1.56Z"/><path class="cls-4" d="M100.75,39.2V37.64h3.13V39.2h1.56V47h-3.13V39.2Zm4.69,0V37.64h4.68V39.2h1.57V47h-3.13V39.2Z"/><path class="cls-4" d="M122.62,45.45V47h-4.68V45.45h-1.56V39.2h-3.13V37.64h3.13V34.51h1.56V33h1.56v4.69h3.12V39.2H119.5v6.25h1.56V43.89h3.13v1.56Z"/><path class="cls-4" d="M135.12,45.45V47h-7.81V45.45h-1.56V39.2h1.56V37.64h7.81V39.2h1.57v3.13h-7.81v3.12h4.68V43.89h3.13v1.56Zm-1.56-4.69V39.2h-4.68v1.56Z"/><path class="cls-4" d="M138.25,47V45.45h1.56V39.2h-1.56V37.64h3.13V39.2h1.56V37.64h4.68V39.2h1.57v3.13h-3.13V39.2H144.5v1.56h-1.56v4.69h1.56V47Z"/><rect class="cls-5" x="29.75" y="64" width="180" height="20"/><rect class="cls-5" x="30" y="95" width="180" height="20"/><rect class="cls-2" x="87" y="124" width="66" height="23"/><rect class="cls-1" x="88" y="125" width="63" height="20"/><path class="cls-4" d="M71.5,162.51v-.75h.75v-5.25H71.5v-.75h5.25V158H76v-.75h-.75v-.75h-1.5v2.25h.75V158h.75v2.25H74.5v-.75h-.75v2.25h.75v.75Z"/><path class="cls-4" d="M77.5,161.76v-3h.75V158H82v.75h.75v3H82v.75H78.25v-.75Zm3.75,0v-3H79v3Z"/><path class="cls-4" d="M83.5,162.51v-.75h.75v-3H83.5V158H85v.75h.75V158H88v.75h.75v1.5h-1.5v-1.5H86.5v.75h-.75v2.25h.75v.75Z"/><path class="cls-4" d="M94,158.76v4.5h-.75V164h-3v-.75H89.5v-.75H91v.75h1.5v-1.5H90.25V161H89.5v-2.25h.75V158H92.5v.75H91V161h1.5v-2.25h.75V158h1.5v.75Z"/><path class="cls-4" d="M95.5,161.76v-3h.75V158H100v.75h.75v3H100v.75H96.25v-.75Zm3.75,0v-3H97v3Z"/><path class="cls-4" d="M106,161.76v.75h-2.25v-.75H103v-3h-1.5V158H103v-1.5h.75v-.75h.75V158H106v.75h-1.5v3h.75V161h1.5v.75Z"/><path class="cls-4" d="M113.5,164v-.75h.75v-4.5h-.75V158H115v.75h.75V158H118v.75h.75V161H118v.75h-2.25v1.5h.75V164Zm3.75-3v-2.25h-1.5V161Z"/><path class="cls-4" d="M123.25,162.51v-.75h-.75v-1.5H121v1.5h1.5v.75h-2.25v-.75h-.75v-1.5h.75v-.75h2.25v-.75h-2.25V158h3v.75H124v3h.75v.75Z"/><path class="cls-4" d="M130,161.76v.75h-3.75v-.75h-.75V161H127v.75h2.25V161h-1.5v-.75h-1.5v-.75h-.75v-.75h.75V158H130v.75h.75v.75h-1.5v-.75H127v.75h1.5v.75H130V161h.75v.75Z"/><path class="cls-4" d="M136,161.76v.75h-3.75v-.75h-.75V161H133v.75h2.25V161h-1.5v-.75h-1.5v-.75h-.75v-.75h.75V158H136v.75h.75v.75h-1.5v-.75H133v.75h1.5v.75H136V161h.75v.75Z"/><path class="cls-4" d="M137.5,161.76V158H139v3h.75v-.75h.75V161h.75v-3h1.5v3.75H142v.75h-1.5v-.75h-.75v.75h-1.5v-.75Z"/><path class="cls-4" d="M143.5,161.76v-3h.75V158H148v.75h.75v3H148v.75h-3.75v-.75Zm3.75,0v-3H145v3Z"/><path class="cls-4" d="M149.5,162.51v-.75h.75v-3h-.75V158H151v.75h.75V158H154v.75h.75v1.5h-1.5v-1.5h-.75v.75h-.75v2.25h.75v.75Z"/><path class="cls-4" d="M159.25,162.51v-.75h-.75v-3h-.75v.75H157v2.25h1.5v.75h-2.25v-.75h-.75v-2.25h.75v-.75H157V158h1.5v-1.5h-.75v-.75H160v6h.75v.75Z"/><path class="cls-4" d="M164.5,158.76V158h.75v-1.5H163V158h-1.5v-1.5h.75v-.75H166v.75h.75V158H166v.75h-.75v1.5h-1.5v-1.5Zm.75,2.25v1.5h-1.5V161Z"/><path class="cls-4" d="M71.5,165.66v-.47h96v.47Z"/><path class="cls-6" d="M34.67,76.66v-7.5h1.88v7.5h2.81v-7.5h1.88v7.5H40.3v.94H35.61v-.94Z"/><path class="cls-6" d="M47.8,76.66v.94H43.11v-.94h-.94v-.94h1.88v.94h2.81v-.94H45v-.93H43.11v-.94h-.94v-.94h.94V72H47.8v.94h.94v.94H46.86v-.94H44.05v.94h1.87v.94H47.8v.93h.94v.94Z"/><path class="cls-6" d="M55.3,76.66v.94H50.61v-.94h-.94V72.91h.94V72H55.3v.94h.94v1.88H51.55v1.87h2.81v-.94h1.88v.94Zm-.94-2.81v-.94H51.55v.94Z"/><path class="cls-6" d="M57.17,77.6v-.94h.94V72.91h-.94V72h1.88v.94H60V72H62.8v.94h.94v1.88H61.86V72.91h-.94v.94H60v2.81h.93v.94Z"/><path class="cls-6" d="M64.67,72.91V72h1.88v.94h.94V77.6H65.61V72.91Zm2.82,0V72H70.3v.94h.94V77.6H69.36V72.91Z"/><path class="cls-6" d="M76.86,77.6v-.94h-.94V74.79H74.05v1.87h1.87v.94H73.11v-.94h-.94V74.79h.94v-.94h2.81v-.94H73.11V72h3.75v.94h.94v3.75h.94v.94Z"/><path class="cls-6" d="M82.49,72v.94h.93V72H85.3v.94h.94V77.6H84.36V73.85h-.94V77.6h-.93V73.85h-.94V77.6H79.67V72Z"/><path class="cls-6" d="M92.8,76.66v.94H88.11v-.94h-.94V72.91h.94V72H92.8v.94h.94v1.88H89.05v1.87h2.81v-.94h1.88v.94Zm-.94-2.81v-.94H89.05v.94Z"/><path class="cls-6" d="M95.61,77.6v-.94h-.94V70.1h.94v-.94h4.69v.94h.94v4.69h-.94v.93H97.49V72h1.87V70.1H96.55v6.56h3.75v.94Z"/><path class="cls-6" d="M105,72v.94h.93V72h1.88v.94h.94V77.6h-1.88V73.85h-.94V77.6H105V73.85h-.94V77.6h-1.88V72Z"/><path class="cls-6" d="M114.36,77.6v-.94h-.94V74.79h-1.87v1.87h1.87v.94h-2.81v-.94h-.94V74.79h.94v-.94h2.81v-.94h-2.81V72h3.75v.94h.94v3.75h.94v.94Z"/><path class="cls-6" d="M119.05,77.6v-.94H120V72.91h-.94V72h2.81v4.69h.94v.94Zm2.81-8.44V71H120V69.16Z"/><path class="cls-6" d="M126.55,77.6v-.94h.94V70.1h-.94v-.94h2.81v7.5h.94v.94Z"/><path class="cls-4" d="M113,137.81v-6.56h.94v-.94h4.68v.94h.94v6.56h-.94v.94h-4.68v-.94Zm4.69,0v-6.56h-2.82v6.56Z"/><path class="cls-4" d="M126.12,134.06V135h-.93v.94h.93v.94h.94v1.87h-1.87v-1.87h-.94v-.94h-.94v2.81H120.5v-.94h.94v-6.56h-.94v-.94h2.81V135h.94v-.94h.94v-.94h1.87v.94Z"/><circle class="cls-4" cx="39.5" cy="105" r="4.5"/><circle class="cls-4" cx="50.5" cy="105" r="4.5"/><circle class="cls-4" cx="61.5" cy="105" r="4.5"/><circle class="cls-4" cx="72.5" cy="105" r="4.5"/><circle class="cls-4" cx="83.5" cy="105" r="4.5"/><circle class="cls-4" cx="94.5" cy="105" r="4.5"/></g></g></svg>