<svg xmlns="http://www.w3.org/2000/svg" viewBox="0 0 284 150"><defs><style>.cls-1{fill:#cdacf9;}.cls-2{fill:#6464de;}.cls-3,.cls-6,.cls-7{fill:none;}.cls-3{stroke:#6464de;}.cls-3,.cls-4,.cls-5,.cls-6,.cls-7{stroke-miterlimit:10;}.cls-4{fill:#f8cf82;}.cls-4,.cls-5,.cls-6,.cls-7{stroke:#000;}.cls-5{fill:#fff;}.cls-7{stroke-dasharray:4.99 4.99;}.cls-8{fill:#83deeb;}</style></defs><title>자산 12</title><g id="레이어_2" data-name="레이어 2"><g id="레이어_1-2" data-name="레이어 1"><rect class="cls-1" width="284" height="150"/><rect class="cls-2" width="284" height="19.84"/><rect class="cls-1" x="265.58" y="2.5" width="15" height="15"/><line class="cls-3" x1="269.08" y1="13.91" x2="277.08" y2="5.91"/><line class="cls-3" x1="269.08" y1="5.91" x2="277.08" y2="13.91"/><path class="cls-2" d="M87.31,45.45V43.89H85.75V36.08h1.56V34.51h1.56V33h6.25v1.56h1.57v3.13H95.12V36.08H93.56V34.51H90.44v1.57H88.87v7.81h1.57v1.56h3.12V43.89h1.56V42.33h1.57v3.12H95.12V47H88.87V45.45Z"/><path class="cls-2" d="M98.25,45.45V39.2h1.56V37.64h7.81V39.2h1.57v6.25h-1.57V47H99.81V45.45Zm7.81,0V39.2h-4.69v6.25Z"/><path class="cls-2" d="M110.75,50.14V48.58h1.56V39.2h-1.56V37.64h3.12V39.2h1.57V37.64h4.68V39.2h1.57v4.69h-1.57v1.56h-4.68v3.13H117v1.56Zm7.81-6.25V39.2h-3.12v4.69Z"/><path class="cls-2" d="M131.06,50.14h-6.25V48.58h4.69V47h1.56V45.45h-6.25V43.89h-1.56V37.64h3.12v6.25h4.69V37.64h3.13V47h-1.57v1.57h-1.56Z"/><path class="cls-2" d="M149.81,47V45.45h1.56V40.76h-1.56V39.2h1.56V34.51h1.57V33h4.68v1.56h1.57v3.13h-1.57V36.08h-1.56V34.51H154.5V39.2h3.12v1.56H154.5v4.69h1.56V47Z"/><path class="cls-2" d="M163.87,47V45.45h1.57V39.2h-1.57V37.64h4.69v7.81h1.56V47ZM168.56,33v3.13h-3.12V33Z"/><path class="cls-2" d="M176.37,47V45.45h1.57V34.51h-1.57V33h4.69v12.5h1.56V47Z"/><path class="cls-2" d="M195.12,45.45V47h-7.81V45.45h-1.56V39.2h1.56V37.64h7.81V39.2h1.57v3.13h-7.82v3.12h4.69V43.89h3.13v1.56Zm-1.56-4.69V39.2h-4.69v1.56Z"/><rect class="cls-4" x="35" y="72" width="32.5" height="21"/><polygon class="cls-4" points="63 70 62 68 53 68 52 70 32 70 32 93 65 93 65 70 63 70"/><rect class="cls-5" x="34" y="72.5" width="28.5" height="20.5"/><polygon class="cls-4" points="65 93 32 93 24 76 57 76 65 93"/><rect class="cls-4" x="227" y="72" width="32.5" height="21"/><polygon class="cls-4" points="255 70 254 68 245 68 244 70 224 70 224 93 257 93 257 70 255 70"/><rect class="cls-5" x="226" y="72.5" width="28.5" height="20.5"/><polygon class="cls-4" points="257 93 224 93 216 76 249 76 257 93"/><path class="cls-6" d="M75.25,82.93A12.73,12.73,0,0,1,77,81.13"/><path class="cls-7" d="M81,78.15c7.9-5,25.41-12.15,61-12.15,37.51,0,54.94,7.93,62.21,12.93"/><path class="cls-6" d="M206.2,80.43A19.34,19.34,0,0,1,208,82.11"/><polygon points="202.75 82.79 202.77 81.79 207.7 81.91 207.46 76.98 208.46 76.94 208.75 82.93 202.75 82.79"/><path d="M132,82.75v3h4v1h1v3h-1v1h-5v-1h-1v-1h2v1h3v-3h-5v-5h7v1Z"/><path d="M139,89.75v-1h-1v-5h1v-1h1v-1h3v1h1v1h1v5h-1v1h-1v1h-3v-1Zm3,0v-1h1v-5h-1v-1h-1v1h-1v5h1v1Z"/><path d="M148,90.75h-2v-1h1v-1h1v-1h1v-1h1v-1h1v-1h1v-1h1v2h-1v1h-1v1h-1v1h-1v1h-1Zm0-7v2h-2v-2Zm5,5v2h-2v-2Z"/><rect class="cls-2" x="52" y="115" width="180" height="20"/><rect class="cls-8" x="54" y="116" width="11" height="18"/><rect class="cls-8" x="66" y="116" width="11" height="18"/><rect class="cls-8" x="78" y="116" width="11" height="18"/><rect class="cls-8" x="90" y="116" width="11" height="18"/><rect class="cls-8" x="102" y="116" width="11" height="18"/><rect class="cls-8" x="114" y="116" width="11" height="18"/><rect class="cls-8" x="126" y="116" width="11" height="18"/><rect class="cls-8" x="138" y="116" width="11" height="18"/></g></g></svg>