<svg xmlns="http://www.w3.org/2000/svg" viewBox="0 0 239 125.5"><defs><style>.cls-1{fill:#f7cee8;}.cls-2{fill:#ef9fc3;}.cls-3,.cls-4{fill:none;stroke-miterlimit:10;}.cls-3{stroke:#435ae1;}.cls-4{stroke:#f7cee8;stroke-width:4px;}.cls-5{fill:#435ae1;}</style></defs><title>자산 10</title><g id="레이어_2" data-name="레이어 2"><g id="레이어_1-2" data-name="레이어 1"><rect class="cls-1" width="239" height="125.5"/><rect class="cls-2" width="239" height="19.84"/><rect class="cls-1" x="221" y="2.5" width="15" height="15"/><line class="cls-3" x1="224.5" y1="13.91" x2="232.5" y2="5.91"/><line class="cls-3" x1="224.5" y1="5.91" x2="232.5" y2="13.91"/><circle class="cls-2" cx="42.5" cy="57.5" r="24"/><line class="cls-4" x1="30" y1="70" x2="55" y2="45"/><line class="cls-4" x1="30" y1="45" x2="55" y2="70"/><path class="cls-5" d="M73,60.49V57.37h3.12v3.12h4.69V57.37H79.25V55.81H76.12V54.24H74.56V52.68H73V49.56h1.56V48h7.82v1.57h1.56v3.12H80.81V49.56H76.12v3.12h1.57v1.56h3.12v1.57h1.57v1.56h1.56v3.12H82.38v1.57H74.56V60.49Z"/><path class="cls-5" d="M93.31,65.18H87.06V63.62h4.69V62.06h1.56V60.49H87.06V58.93H85.5V52.68h3.12v6.25h4.69V52.68h3.13v9.38H94.88v1.56H93.31Z"/><path class="cls-5" d="M107.38,60.49v1.57H99.56V60.49H98V58.93h3.12v1.56h4.69V58.93h-3.12V57.37H99.56V55.81H98V54.24h1.56V52.68h7.82v1.56h1.56v1.57h-3.13V54.24h-4.69v1.57h3.13v1.56h3.13v1.56h1.56v1.56Z"/><path class="cls-5" d="M119.88,60.49v1.57h-4.69V60.49h-1.57V54.24H110.5V52.68h3.12V49.56h1.57V48h1.56v4.69h3.13v1.56h-3.13v6.25h1.56V58.93h3.13v1.56Z"/><path class="cls-5" d="M132.38,60.49v1.57h-7.82V60.49H123V54.24h1.56V52.68h7.82v1.56h1.56v3.13h-7.82v3.12h4.69V58.93h3.13v1.56Zm-1.57-4.68V54.24h-4.69v1.57Z"/><path class="cls-5" d="M140.19,52.68v1.56h1.56V52.68h3.13v1.56h1.56v7.82h-3.13V55.81h-1.56v6.25h-1.56V55.81h-1.57v6.25H135.5V52.68Z"/><path class="cls-5" d="M169.88,60.49v1.57h-7.82V60.49H160.5V54.24h1.56V52.68h7.82v1.56h1.56v3.13h-7.82v3.12h4.69V58.93h3.13v1.56Zm-1.57-4.68V54.24h-4.69v1.57Z"/><path class="cls-5" d="M173,62.06V60.49h1.56V54.24H173V52.68h3.12v1.56h1.57V52.68h4.69v1.56h1.56v3.13h-3.13V54.24h-1.56v1.57h-1.56v4.68h1.56v1.57Z"/><path class="cls-5" d="M185.5,62.06V60.49h1.56V54.24H185.5V52.68h3.12v1.56h1.57V52.68h4.69v1.56h1.56v3.13h-3.13V54.24h-1.56v1.57h-1.56v4.68h1.56v1.57Z"/><path class="cls-5" d="M198,60.49V54.24h1.56V52.68h7.82v1.56h1.56v6.25h-1.56v1.57h-7.82V60.49Zm7.81,0V54.24h-4.69v6.25Z"/><path class="cls-5" d="M210.5,62.06V60.49h1.56V54.24H210.5V52.68h3.12v1.56h1.57V52.68h4.69v1.56h1.56v3.13h-3.13V54.24h-1.56v1.57h-1.56v4.68h1.56v1.57Z"/><rect class="cls-2" x="86.5" y="92.5" width="66" height="23"/><rect class="cls-1" x="87.5" y="93.5" width="63" height="20"/><path class="cls-5" d="M97.44,106.31v-.93H96.5v-4.69h.94v-.94h.94v-.94h3.74v.94h.94v1.87h-.94v-.93h-.93v-.94H99.31v.94h-.93v4.69h.93v.93h1.88v-.93h.93v-.94h.94v1.87h-.94v.94H98.38v-.94Z"/><path class="cls-5" d="M108.69,107.25v-.94h-.94v-1.87h-1.87v1.87h1.87v.94h-2.81v-.94H104v-1.87h.94v-.94h2.81v-.94h-2.81v-.94h3.75v.94h.93v3.75h.94v.94Z"/><path class="cls-5" d="M111.5,102.56v-.94h1.88v.94h.93v4.69h-1.87v-4.69Zm2.81,0v-.94h2.81v.94h.94v4.69h-1.87v-4.69Z"/><path class="cls-5" d="M124.62,106.31v.94h-4.68v-.94H119v-3.75h.94v-.94h4.68v.94h.94v.94h-1.87v-.94h-2.81v3.75h2.81v-.93h1.87v.93Z"/><path class="cls-5" d="M132.12,106.31v.94h-4.68v-.94h-.94v-3.75h.94v-.94h4.68v.94h.94v1.88h-4.68v1.87h2.81v-.93h1.87v.93Zm-.93-2.81v-.94h-2.81v.94Z"/><path class="cls-5" d="M135.88,107.25v-.94h.93V99.75h-.93v-.94h2.81v7.5h.93v.94Z"/></g></g></svg>